<svg xmlns="http://www.w3.org/2000/svg" width="36.653" height="36.653" viewBox="0 0 36.653 36.653">
  <path id="icons8-instagram" d="M13.829,3A10.84,10.84,0,0,0,3,13.829V28.824A10.84,10.84,0,0,0,13.829,39.653H28.824A10.84,10.84,0,0,0,39.653,28.824V13.829A10.84,10.84,0,0,0,28.824,3ZM31.323,9.664a1.666,1.666,0,1,1-1.666,1.666A1.671,1.671,0,0,1,31.323,9.664Zm-10,2.5a9.163,9.163,0,1,1-9.163,9.163A9.169,9.169,0,0,1,21.327,12.163Zm0,1.666a7.5,7.5,0,1,0,7.5,7.5A7.509,7.509,0,0,0,21.327,13.829Z" transform="translate(-3 -3)" fill="#dbcea5"/>
</svg>
